<mxfile host="app.diagrams.net" modified="2021-04-07T03:35:48.447Z" agent="5.0 (X11)" etag="ZEpOBEKSFCUVrJ6pffl1" version="13.9.9" type="github">
  <diagram name="Page-1" id="e7e014a7-5840-1c2e-5031-d8a46d1fe8dd">
    <mxGraphModel dx="807" dy="464" grid="1" gridSize="10" guides="1" tooltips="1" connect="1" arrows="1" fold="1" page="1" pageScale="1" pageWidth="1169" pageHeight="826" background="#ffffff" math="0" shadow="0">
      <root>
        <mxCell id="0" />
        <mxCell id="1" parent="0" />
        <mxCell id="2" value="Admin" style="swimlane;whiteSpace=wrap" parent="1" vertex="1">
          <mxGeometry x="164.5" y="128" width="280" height="570" as="geometry" />
        </mxCell>
        <mxCell id="5" value="" style="ellipse;shape=startState;fillColor=#000000;" parent="2" vertex="1">
          <mxGeometry x="100" y="40" width="30" height="30" as="geometry" />
        </mxCell>
        <mxCell id="TRViPsrnuE-yPL_HlSUp-44" value="Login" style="rounded=1;whiteSpace=wrap;html=1;" vertex="1" parent="2">
          <mxGeometry x="55" y="112" width="120" height="60" as="geometry" />
        </mxCell>
        <mxCell id="TRViPsrnuE-yPL_HlSUp-49" value="Surat Masuk dan Surat Keluar" style="rounded=1;whiteSpace=wrap;html=1;" vertex="1" parent="2">
          <mxGeometry x="55" y="225" width="120" height="60" as="geometry" />
        </mxCell>
        <mxCell id="TRViPsrnuE-yPL_HlSUp-53" value="" style="endArrow=classic;html=1;entryX=0.5;entryY=0;entryDx=0;entryDy=0;exitX=0.5;exitY=1;exitDx=0;exitDy=0;fillColor=#f8cecc;strokeColor=#b85450;" edge="1" parent="2" source="5" target="TRViPsrnuE-yPL_HlSUp-44">
          <mxGeometry width="50" height="50" relative="1" as="geometry">
            <mxPoint x="90" y="112" as="sourcePoint" />
            <mxPoint x="140" y="62" as="targetPoint" />
          </mxGeometry>
        </mxCell>
        <mxCell id="3" value="System" style="swimlane;whiteSpace=wrap" parent="1" vertex="1">
          <mxGeometry x="445" y="128" width="280" height="570" as="geometry" />
        </mxCell>
        <mxCell id="21" value="Benar?" style="rhombus;fillColor=#ffffc0;strokeColor=#ff0000;" parent="3" vertex="1">
          <mxGeometry x="95.5" y="232" width="80" height="40" as="geometry" />
        </mxCell>
        <mxCell id="32" value="" style="endArrow=none;strokeColor=#FF0000;endFill=0;rounded=0;dashed=1" parent="3" edge="1">
          <mxGeometry relative="1" as="geometry">
            <mxPoint x="95.5" y="510.84279475982544" as="sourcePoint" />
            <mxPoint x="105" y="511.50655021834064" as="targetPoint" />
          </mxGeometry>
        </mxCell>
        <mxCell id="TRViPsrnuE-yPL_HlSUp-48" value="Transaksi Surat" style="rounded=1;whiteSpace=wrap;html=1;" vertex="1" parent="3">
          <mxGeometry x="75.5" y="112" width="120" height="60" as="geometry" />
        </mxCell>
        <mxCell id="TRViPsrnuE-yPL_HlSUp-59" value="" style="endArrow=classic;html=1;edgeStyle=orthogonalEdgeStyle;exitX=1;exitY=0.5;exitDx=0;exitDy=0;fillColor=#f8cecc;strokeColor=#b85450;entryX=1;entryY=0.5;entryDx=0;entryDy=0;" edge="1" parent="3" source="21" target="TRViPsrnuE-yPL_HlSUp-48">
          <mxGeometry relative="1" as="geometry">
            <mxPoint x="130" y="212" as="sourcePoint" />
            <mxPoint x="200" y="142" as="targetPoint" />
            <Array as="points">
              <mxPoint x="235" y="252" />
              <mxPoint x="235" y="142" />
            </Array>
          </mxGeometry>
        </mxCell>
        <mxCell id="TRViPsrnuE-yPL_HlSUp-60" value="Tidak" style="edgeLabel;resizable=0;html=1;align=center;verticalAlign=middle;" connectable="0" vertex="1" parent="TRViPsrnuE-yPL_HlSUp-59">
          <mxGeometry relative="1" as="geometry" />
        </mxCell>
        <mxCell id="TRViPsrnuE-yPL_HlSUp-62" value="Proses Surat" style="rounded=1;whiteSpace=wrap;html=1;" vertex="1" parent="3">
          <mxGeometry x="85" y="332" width="120" height="60" as="geometry" />
        </mxCell>
        <mxCell id="TRViPsrnuE-yPL_HlSUp-68" value="" style="endArrow=classic;html=1;entryX=0.442;entryY=0.017;entryDx=0;entryDy=0;exitX=0.5;exitY=1;exitDx=0;exitDy=0;entryPerimeter=0;fillColor=#f8cecc;strokeColor=#b85450;" edge="1" parent="3" source="21" target="TRViPsrnuE-yPL_HlSUp-62">
          <mxGeometry relative="1" as="geometry">
            <mxPoint x="80" y="292" as="sourcePoint" />
            <mxPoint x="240" y="292" as="targetPoint" />
          </mxGeometry>
        </mxCell>
        <mxCell id="TRViPsrnuE-yPL_HlSUp-69" value="Iya" style="edgeLabel;resizable=0;html=1;align=center;verticalAlign=middle;" connectable="0" vertex="1" parent="TRViPsrnuE-yPL_HlSUp-68">
          <mxGeometry relative="1" as="geometry" />
        </mxCell>
        <mxCell id="4" value="Bagian" style="swimlane;whiteSpace=wrap" parent="1" vertex="1">
          <mxGeometry x="724.5" y="128" width="280" height="570" as="geometry" />
        </mxCell>
        <mxCell id="38" value="" style="ellipse;shape=endState;fillColor=#000000;strokeColor=#ff0000" parent="4" vertex="1">
          <mxGeometry x="130" y="500" width="30" height="30" as="geometry" />
        </mxCell>
        <mxCell id="TRViPsrnuE-yPL_HlSUp-42" value="" style="ellipse;shape=startState;fillColor=#000000;" vertex="1" parent="4">
          <mxGeometry x="125" y="42" width="30" height="30" as="geometry" />
        </mxCell>
        <mxCell id="TRViPsrnuE-yPL_HlSUp-71" value="Login" style="rounded=1;whiteSpace=wrap;html=1;" vertex="1" parent="4">
          <mxGeometry x="85" y="112" width="120" height="60" as="geometry" />
        </mxCell>
        <mxCell id="TRViPsrnuE-yPL_HlSUp-75" value="" style="endArrow=classic;html=1;entryX=0.438;entryY=0;entryDx=0;entryDy=0;entryPerimeter=0;fillColor=#f8cecc;strokeColor=#b85450;" edge="1" parent="4" target="TRViPsrnuE-yPL_HlSUp-71">
          <mxGeometry width="50" height="50" relative="1" as="geometry">
            <mxPoint x="137.5" y="72" as="sourcePoint" />
            <mxPoint x="-174.5" y="202" as="targetPoint" />
          </mxGeometry>
        </mxCell>
        <mxCell id="TRViPsrnuE-yPL_HlSUp-76" value="Tampil surat dan kode surat" style="rounded=1;whiteSpace=wrap;html=1;strokeColor=#000000;" vertex="1" parent="4">
          <mxGeometry x="85" y="272" width="120" height="60" as="geometry" />
        </mxCell>
        <mxCell id="TRViPsrnuE-yPL_HlSUp-78" value="" style="endArrow=classic;html=1;exitX=0.421;exitY=1.05;exitDx=0;exitDy=0;exitPerimeter=0;fillColor=#f8cecc;strokeColor=#b85450;" edge="1" parent="4" source="TRViPsrnuE-yPL_HlSUp-71">
          <mxGeometry width="50" height="50" relative="1" as="geometry">
            <mxPoint x="-94.5" y="252" as="sourcePoint" />
            <mxPoint x="135.5" y="271" as="targetPoint" />
          </mxGeometry>
        </mxCell>
        <mxCell id="TRViPsrnuE-yPL_HlSUp-81" value="" style="endArrow=classic;html=1;entryX=0.5;entryY=0;entryDx=0;entryDy=0;exitX=0.5;exitY=1;exitDx=0;exitDy=0;fillColor=#f8cecc;strokeColor=#b85450;" edge="1" parent="4" source="TRViPsrnuE-yPL_HlSUp-76" target="38">
          <mxGeometry width="50" height="50" relative="1" as="geometry">
            <mxPoint x="75.5" y="452" as="sourcePoint" />
            <mxPoint x="95.5" y="392" as="targetPoint" />
          </mxGeometry>
        </mxCell>
        <mxCell id="TRViPsrnuE-yPL_HlSUp-47" value="" style="endArrow=classic;html=1;exitX=1;exitY=0.5;exitDx=0;exitDy=0;fillColor=#f8cecc;strokeColor=#b85450;" edge="1" parent="1" source="TRViPsrnuE-yPL_HlSUp-44">
          <mxGeometry width="50" height="50" relative="1" as="geometry">
            <mxPoint x="380" y="280" as="sourcePoint" />
            <mxPoint x="520" y="270" as="targetPoint" />
          </mxGeometry>
        </mxCell>
        <mxCell id="TRViPsrnuE-yPL_HlSUp-54" value="" style="endArrow=classic;html=1;edgeStyle=orthogonalEdgeStyle;exitX=0.5;exitY=1;exitDx=0;exitDy=0;fillColor=#f8cecc;strokeColor=#b85450;" edge="1" parent="1" source="TRViPsrnuE-yPL_HlSUp-48">
          <mxGeometry width="50" height="50" relative="1" as="geometry">
            <mxPoint x="520" y="390" as="sourcePoint" />
            <mxPoint x="280" y="360" as="targetPoint" />
            <Array as="points">
              <mxPoint x="580" y="340" />
              <mxPoint x="280" y="340" />
              <mxPoint x="280" y="350" />
            </Array>
          </mxGeometry>
        </mxCell>
        <mxCell id="TRViPsrnuE-yPL_HlSUp-55" value="" style="endArrow=classic;html=1;exitX=1;exitY=0.5;exitDx=0;exitDy=0;entryX=0;entryY=0.5;entryDx=0;entryDy=0;fillColor=#f8cecc;strokeColor=#b85450;" edge="1" parent="1" source="TRViPsrnuE-yPL_HlSUp-49" target="21">
          <mxGeometry width="50" height="50" relative="1" as="geometry">
            <mxPoint x="520" y="390" as="sourcePoint" />
            <mxPoint x="570" y="340" as="targetPoint" />
          </mxGeometry>
        </mxCell>
        <mxCell id="TRViPsrnuE-yPL_HlSUp-77" value="" style="endArrow=classic;html=1;edgeStyle=orthogonalEdgeStyle;exitX=1;exitY=0.5;exitDx=0;exitDy=0;entryX=0;entryY=0.5;entryDx=0;entryDy=0;fillColor=#f8cecc;strokeColor=#b85450;" edge="1" parent="1" source="TRViPsrnuE-yPL_HlSUp-62" target="TRViPsrnuE-yPL_HlSUp-76">
          <mxGeometry width="50" height="50" relative="1" as="geometry">
            <mxPoint x="660" y="490" as="sourcePoint" />
            <mxPoint x="810" y="430" as="targetPoint" />
            <Array as="points">
              <mxPoint x="740.5" y="490" />
              <mxPoint x="740.5" y="430" />
            </Array>
          </mxGeometry>
        </mxCell>
      </root>
    </mxGraphModel>
  </diagram>
</mxfile>
